<?xml version="1.0" encoding="UTF-8" standalone="no"?>
<!-- Created with Inkscape (http://www.inkscape.org/) -->

<svg
   version="1.1"
   id="svg806"
   width="880"
   height="880"
   viewBox="0 0 880 880"
   sodipodi:docname="bush-tree-clipart-vector-pdv.svg"
   inkscape:version="1.2 (dc2aedaf03, 2022-05-15)"
   xmlns:inkscape="http://www.inkscape.org/namespaces/inkscape"
   xmlns:sodipodi="http://sodipodi.sourceforge.net/DTD/sodipodi-0.dtd"
   xmlns="http://www.w3.org/2000/svg"
   xmlns:svg="http://www.w3.org/2000/svg">
  <defs
     id="defs810">
    <clipPath
       clipPathUnits="userSpaceOnUse"
       id="clipPath822">
      <path
         d="M 0,660 H 660 V 0 H 0 Z"
         id="path820" />
    </clipPath>
  </defs>
  <sodipodi:namedview
     id="namedview808"
     pagecolor="#ffffff"
     bordercolor="#000000"
     borderopacity="0.25"
     inkscape:showpageshadow="2"
     inkscape:pageopacity="0.0"
     inkscape:pagecheckerboard="0"
     inkscape:deskcolor="#d1d1d1"
     showgrid="false"
     inkscape:zoom="0.95113636"
     inkscape:cx="441.05137"
     inkscape:cy="440.52569"
     inkscape:window-width="1920"
     inkscape:window-height="1017"
     inkscape:window-x="-8"
     inkscape:window-y="-8"
     inkscape:window-maximized="1"
     inkscape:current-layer="g814">
    <inkscape:page
       x="0"
       y="0"
       id="page812"
       width="880"
       height="880" />
  </sodipodi:namedview>
  <g
     id="g814"
     inkscape:groupmode="layer"
     inkscape:label="Page 1"
     transform="matrix(1.3333333,0,0,-1.3333333,0,880)">
    <g
       id="g816">
      <g
         id="g818"
         clip-path="url(#clipPath822)">
        <g
           id="g824"
           transform="translate(310.707,64.0918)">
          <path
             d="m 0,0 c 128.566,0 233.424,4.861 233.424,10.819 0,5.959 -104.858,10.819 -233.424,10.819 -128.563,0 -233.423,-4.86 -233.423,-10.819 C -233.423,4.861 -128.563,0 0,0"
             style="fill:#bf8e5e;fill-opacity:1;fill-rule:evenodd;stroke:none"
             id="path826" />
        </g>
        <g
           id="g828"
           transform="translate(571.082,121)">
          <path
             d="m 0,0 c -3.443,3.476 -8.249,5.592 -13.529,5.49 -5.28,-0.101 -10,-2.4 -13.309,-6.007 3.445,-3.475 8.251,-5.591 13.531,-5.49 5.279,0.102 10,2.401 13.307,6.007 m -4.499,-29.487 c -6.132,-0.146 -12.311,2.123 -16.988,6.803 -4.68,4.683 -6.944,10.863 -6.796,16.995 6.133,0.144 12.31,-2.122 16.989,-6.804 4.678,-4.682 6.944,-10.862 6.795,-16.994"
             style="fill:#cfe35d;fill-opacity:1;fill-rule:evenodd;stroke:none"
             id="path830" />
        </g>
        <g
           id="g832"
           transform="translate(490.5938,226.0684)">
          <path
             d="m 0,0 c 42.32,0 76.629,-34.309 76.629,-76.629 0,-42.322 -34.309,-76.63 -76.629,-76.63 h -148.505 c -28.264,0 -51.176,22.91 -51.176,51.175 0,20.709 12.304,38.545 29.999,46.598 -0.1,1.758 -0.156,3.529 -0.156,5.312 0,50.663 41.069,91.733 91.734,91.733 32.15,0 60.432,-16.541 76.812,-41.575 C -0.861,-0.009 -0.433,0 0,0"
             style="fill:#94ab13;fill-opacity:1;fill-rule:evenodd;stroke:none"
             id="path834" />
        </g>
        <g
           id="g836"
           transform="translate(538.7246,209.0625)">
          <path
             d="m 0,0 c 17.381,-14.049 28.498,-35.535 28.498,-59.623 0,-42.322 -34.309,-76.63 -76.629,-76.63 h -148.505 c -21.375,0 -39.685,13.106 -47.343,31.717 9.34,-9.994 22.636,-16.244 37.396,-16.244 28.262,0 51.173,22.912 51.173,51.174 0,6.889 -1.363,13.458 -3.833,19.457 8.547,-9.146 13.78,-21.427 13.78,-34.929 0,-3.402 -0.336,-6.727 -0.968,-9.943 49.44,1.4 89.088,41.915 89.088,91.693 0,14.191 -3.223,27.629 -8.975,39.624 19.484,-16.822 31.817,-41.703 31.817,-69.464 0,-35.496 -20.16,-66.281 -49.655,-81.532 6.099,-1.564 12.49,-2.395 19.077,-2.395 42.322,0 76.63,34.307 76.63,76.629 C 11.551,-25.61 7.318,-11.743 0,0"
             style="fill:#82970a;fill-opacity:1;fill-rule:evenodd;stroke:none"
             id="path838" />
        </g>
        <g
           id="g840"
           transform="translate(340.3145,72.8096)">
          <path
             d="M 0,0 C -2.569,26.746 -0.839,52.594 7.502,77.067 -0.538,62.233 -6.855,45.187 -8.525,22.165 -12.732,44.331 -14.549,66.496 -13.3,88.661 -19.39,68.88 -22.896,48.882 -23.529,28.645 c -0.815,21.687 -3.166,41.397 -7.161,58.994 -6.164,-21.686 -8.331,-43.903 -7.673,-66.496 -1.297,19.489 -3.99,37.118 -9.379,51.15 2.291,-19.573 -0.914,-39.876 -5.454,-60.359 -0.95,21.187 -4.04,39.646 -15.006,48.084 4.298,-14.746 3.382,-28.794 0.852,-42.627 -2.676,15.172 -6.466,28.827 -14.151,37.17 6.564,-15.413 7.848,-34.592 8.029,-54.561 z"
             style="fill:#bad526;fill-opacity:1;fill-rule:evenodd;stroke:none"
             id="path842" />
        </g>
        <g
           id="g844"
           transform="translate(315.9385,222.6416)">
          <path
             d="M 0,0 V -142.533 H -25.891 V 0 c 0,21.872 -9.91,39.713 -22.062,39.713 h -0.361 v 75.726 H 22.423 V 39.713 H 22.062 C 9.911,39.713 0,21.872 0,0"
             style="fill:#663c12;fill-opacity:1;fill-rule:evenodd;stroke:none"
             id="path846" />
        </g>
        <g
           id="g848"
           transform="translate(289.2031,233.5273)">
          <path
             d="m 0,0 c -2.642,16.608 -11.162,28.827 -21.218,28.827 h -0.36 v 75.727 H 49.158 V 28.827 h -0.36 C 38.742,28.827 30.222,16.608 27.58,0 23.026,-0.332 18.43,-0.508 13.789,-0.508 9.151,-0.508 4.555,-0.332 0,0"
             style="fill:#4d2b08;fill-opacity:1;fill-rule:evenodd;stroke:none"
             id="path850" />
        </g>
        <g
           id="g852"
           transform="translate(126.876,489.8931)">
          <path
             d="m 0,0 c 9.988,-1.29 19.451,-6.509 25.881,-15.27 6.428,-8.761 8.565,-19.355 6.798,-29.271 -9.989,1.29 -19.452,6.509 -25.881,15.27 C 0.369,-20.508 -1.768,-9.916 0,0 m -42.612,-44.196 c 7.424,-10.212 18.853,-17.483 32.354,-19.287 13.501,-1.803 26.44,2.212 36.283,10.116 -7.424,10.211 -18.852,17.484 -32.354,19.287 -13.5,1.804 -26.438,-2.213 -36.283,-10.116"
             style="fill:#cfe35d;fill-opacity:1;fill-rule:evenodd;stroke:none"
             id="path854" />
        </g>
        <g
           id="g856"
           transform="translate(418.9082,472.9292)">
          <path
             d="m 0,0 c 8.67,-5.128 19.342,-6.834 29.798,-3.88 10.458,2.954 18.66,9.989 23.367,18.893 -8.669,5.128 -19.341,6.836 -29.798,3.882 C 12.908,15.942 4.707,8.904 0,0"
             style="fill:#cfe35d;fill-opacity:1;fill-rule:evenodd;stroke:none"
             id="path858" />
        </g>
        <g
           id="g860"
           transform="translate(302.9941,256.3223)">
          <path
             d="M 0,0 C 90.292,0.001 163.936,73.645 163.936,163.938 163.936,254.23 90.292,327.875 0,327.875 -90.294,327.875 -163.937,254.23 -163.937,163.938 -163.937,73.645 -90.294,0 0,0"
             style="fill:#94ab13;fill-opacity:1;fill-rule:evenodd;stroke:none"
             id="path862" />
        </g>
        <g
           id="g864"
           transform="translate(413.1787,541.646)">
          <path
             d="m 0,0 c 33.019,-29.99 53.751,-73.267 53.751,-121.386 0,-90.54 -73.396,-163.937 -163.937,-163.938 -71.937,0 -133.045,46.337 -155.124,110.788 29.111,-26.437 67.768,-42.55 110.188,-42.55 90.54,0 163.937,73.398 163.937,163.939 C 8.815,-34.545 5.709,-16.669 0,0"
             style="fill:#82970a;fill-opacity:1;fill-rule:evenodd;stroke:none"
             id="path866" />
        </g>
        <g
           id="g868"
           transform="translate(189.875,558.4785)">
          <path
             d="m 0,0 c -0.06,-13.845 5.328,-27.687 16.094,-38.041 10.767,-10.354 24.811,-15.194 38.641,-14.593 0.06,13.845 -5.327,27.689 -16.092,38.042 C 27.874,-4.239 13.831,0.602 0,0 M 67.974,50.009 C 80.532,38.035 88.359,21.142 88.359,2.417 c 0,-18.722 -7.827,-35.618 -20.385,-47.591 -12.561,11.973 -20.39,28.869 -20.39,47.591 0,18.725 7.829,35.618 20.39,47.592"
             style="fill:#cfe35d;fill-opacity:1;fill-rule:evenodd;stroke:none"
             id="path870" />
        </g>
        <g
           id="g872"
           transform="translate(369.6201,558.3994)">
          <path
             d="m 0,0 c -6.696,-7.523 -10.421,-17.668 -9.531,-28.499 0.889,-10.83 6.22,-20.23 14.054,-26.559 6.697,7.523 10.422,17.667 9.532,28.498 C 13.164,-15.729 7.834,-6.329 0,0 M 61.15,-5.437 C 62.239,-18.014 58.376,-30.999 49.364,-41.212 40.353,-51.426 27.95,-56.875 15.335,-57.36 c -1.089,12.576 2.773,25.561 11.786,35.775 9.013,10.213 21.414,15.663 34.029,16.148"
             style="fill:#cfe35d;fill-opacity:1;fill-rule:evenodd;stroke:none"
             id="path874" />
        </g>
        <g
           id="g876"
           transform="translate(461.998,347.7803)">
          <path
             d="m 0,0 c -7.089,7.155 -16.978,11.509 -27.844,11.299 -10.865,-0.209 -20.581,-4.94 -27.389,-12.364 7.087,-7.154 16.98,-11.507 27.845,-11.297 C -16.523,-12.153 -6.807,-7.424 0,0 m -9.262,-60.69 c -12.62,-0.296 -25.336,4.371 -34.965,14.006 -9.626,9.636 -14.287,22.354 -13.982,34.975 12.622,0.296 25.337,-4.371 34.966,-14.005 9.629,-9.636 14.289,-22.355 13.981,-34.976"
             style="fill:#cfe35d;fill-opacity:1;fill-rule:evenodd;stroke:none"
             id="path878" />
        </g>
        <g
           id="g880"
           transform="translate(184.3828,287.8906)">
          <path
             d="M 0,0 C 3.904,9.282 11.457,17.014 21.615,20.876 31.772,24.737 42.553,23.975 51.638,19.629 47.733,10.347 40.182,2.615 30.023,-1.246 19.867,-5.107 9.087,-4.345 0,0 m 31.245,-52.848 c 11.819,4.436 21.875,13.514 27.208,26.046 5.338,12.534 4.914,26.073 -0.081,37.666 C 46.554,6.43 36.498,-2.647 31.161,-15.181 25.825,-27.713 26.25,-41.252 31.245,-52.848"
             style="fill:#cfe35d;fill-opacity:1;fill-rule:evenodd;stroke:none"
             id="path882" />
        </g>
        <g
           id="g884"
           transform="translate(193.334,382.9829)">
          <path
             d="M 0,0 C 9.086,-4.346 19.867,-5.107 30.022,-1.246 40.181,2.615 47.733,10.346 51.64,19.629 42.554,23.974 31.772,24.737 21.615,20.876 11.456,17.014 3.906,9.283 0,0"
             style="fill:#cfe35d;fill-opacity:1;fill-rule:evenodd;stroke:none"
             id="path886" />
        </g>
        <g
           id="g888"
           transform="translate(289.0537,287.4941)">
          <path
             d="M 0,0 C 9.665,8.119 16.118,20.032 16.97,33.627 17.823,47.221 12.909,59.843 4.336,69.11 -5.329,60.987 -11.782,49.078 -12.636,35.483 -13.488,21.889 -8.575,9.266 0,0"
             style="fill:#cfe35d;fill-opacity:1;fill-rule:evenodd;stroke:none"
             id="path890" />
        </g>
        <g
           id="g892"
           transform="translate(380.5176,421.0405)">
          <path
             d="M 0,0 C 7.291,-6.948 17.304,-11.015 28.158,-10.494 39.013,-9.972 48.59,-4.965 55.181,2.651 47.888,9.599 37.877,13.666 27.022,13.144 16.168,12.623 6.593,7.616 0,0"
             style="fill:#cfe35d;fill-opacity:1;fill-rule:evenodd;stroke:none"
             id="path894" />
        </g>
        <g
           id="g896"
           transform="translate(289.8105,473.6875)">
          <path
             d="M 0,0 C 8.56,-3.789 15.61,-10.939 19.023,-20.443 22.434,-29.949 21.54,-39.951 17.346,-48.318 8.787,-44.529 1.734,-37.379 -1.678,-27.874 -5.088,-18.37 -4.194,-8.367 0,0 m 56.19,9.875 c 4.011,-11.024 3.678,-23.608 -1.944,-34.949 -5.625,-11.34 -15.44,-19.221 -26.644,-22.702 -4.011,11.026 -3.678,23.609 1.946,34.949 C 35.17,-1.486 44.985,6.396 56.19,9.875"
             style="fill:#cfe35d;fill-opacity:1;fill-rule:evenodd;stroke:none"
             id="path898" />
        </g>
        <g
           id="g900"
           transform="translate(266.3164,72.8096)">
          <path
             d="M 0,0 C 2.57,26.746 0.839,52.594 -7.503,77.067 0.537,62.233 6.853,45.187 8.525,22.165 12.732,44.331 14.547,66.496 13.3,88.661 19.39,68.88 22.895,48.882 23.53,28.645 c 0.814,21.687 3.163,41.397 7.16,58.994 6.162,-21.686 8.331,-43.903 7.672,-66.496 1.298,19.489 3.99,37.118 9.38,51.15 C 45.45,52.72 48.654,32.417 53.196,11.934 54.143,33.121 57.236,51.58 68.202,60.018 63.903,45.272 64.82,31.224 67.349,17.391 70.025,32.563 73.816,46.218 81.5,54.561 74.936,39.148 73.653,19.969 73.471,0 Z"
             style="fill:#cfe35d;fill-opacity:1;fill-rule:evenodd;stroke:none"
             id="path902" />
        </g>
        <g
           id="g904"
           transform="translate(352.6514,252.7549)">
          <path
             d="m 0,0 c -0.026,-6.14 2.364,-12.28 7.139,-16.873 4.775,-4.593 11.004,-6.74 17.139,-6.472 0.027,6.14 -2.363,12.28 -7.138,16.872 C 12.363,-1.88 6.135,0.268 0,0 m 30.148,22.182 c 5.573,-5.311 9.044,-12.805 9.044,-21.111 0,-8.303 -3.471,-15.797 -9.044,-21.108 -5.57,5.311 -9.043,12.805 -9.043,21.108 0,8.306 3.473,15.8 9.043,21.111"
             style="fill:#cfe35d;fill-opacity:1;fill-rule:evenodd;stroke:none"
             id="path906" />
        </g>
        <g
           id="g908"
           transform="translate(389.999,113.5566)">
          <path
             d="m 0,0 c 2.236,5.314 6.56,9.739 12.374,11.95 5.816,2.212 11.988,1.776 17.19,-0.713 C 27.327,5.923 23.004,1.498 17.189,-0.714 11.373,-2.925 5.201,-2.488 0,0 m 17.888,-30.256 c 6.767,2.538 12.522,7.735 15.578,14.911 C 36.521,-8.17 36.278,-0.419 33.42,6.22 26.651,3.68 20.896,-1.518 17.841,-8.691 c -3.056,-7.175 -2.814,-14.928 0.047,-21.565"
             style="fill:#cfe35d;fill-opacity:1;fill-rule:evenodd;stroke:none"
             id="path910" />
        </g>
        <g
           id="g912"
           transform="translate(486.7578,268.8525)">
          <path
             d="m 0,0 c -6.696,-7.522 -10.421,-17.667 -9.531,-28.499 0.891,-10.828 6.221,-20.23 14.054,-26.558 6.697,7.523 10.423,17.666 9.532,28.498 C 13.165,-15.729 7.835,-6.328 0,0 m 61.15,-5.437 c 1.089,-12.576 -2.774,-25.56 -11.786,-35.774 -9.011,-10.214 -21.413,-15.663 -34.029,-16.148 -1.088,12.576 2.773,25.561 11.786,35.775 9.013,10.214 21.415,15.662 34.029,16.147"
             style="fill:#cfe35d;fill-opacity:1;fill-rule:evenodd;stroke:none"
             id="path914" />
        </g>
        <g
           id="g916"
           transform="translate(501.6904,111.5264)">
          <path
             d="m 0,0 c -0.019,-6.425 2.491,-12.845 7.494,-17.641 5.005,-4.796 11.525,-7.035 17.943,-6.745 0.017,6.424 -2.493,12.845 -7.497,17.641 C 12.937,-1.948 6.417,0.288 0,0"
             style="fill:#cfe35d;fill-opacity:1;fill-rule:evenodd;stroke:none"
             id="path918" />
        </g>
        <g
           id="g920"
           transform="translate(360.6006,170.1709)">
          <path
             d="m 0,0 c 7.609,-3.64 16.64,-4.277 25.148,-1.043 8.507,3.234 14.831,9.709 18.104,17.484 -7.61,3.64 -16.641,4.278 -25.148,1.043 C 9.597,14.25 3.272,7.774 0,0"
             style="fill:#cfe35d;fill-opacity:1;fill-rule:evenodd;stroke:none"
             id="path922" />
        </g>
        <g
           id="g924"
           transform="translate(532.3467,168.7812)">
          <path
             d="M 0,0 C 7.952,-2.516 16.878,-1.897 24.762,2.439 32.645,6.776 37.946,13.986 40.077,22.048 32.126,24.562 23.2,23.945 15.316,19.608 7.434,15.271 2.132,8.062 0,0"
             style="fill:#cfe35d;fill-opacity:1;fill-rule:evenodd;stroke:none"
             id="path926" />
        </g>
        <g
           id="g928"
           transform="translate(434.543,182.7383)">
          <path
             d="m 0,0 c 4.633,-2.05 8.451,-5.921 10.298,-11.068 1.847,-5.146 1.363,-10.562 -0.906,-15.091 -4.634,2.051 -8.454,5.922 -10.301,11.068 C -2.755,-9.945 -2.271,-4.529 0,0 m 30.423,5.348 c 2.17,-5.969 1.99,-12.783 -1.055,-18.923 -3.044,-6.14 -8.358,-10.407 -14.424,-12.29 -2.172,5.968 -1.992,12.781 1.053,18.922 3.045,6.137 8.359,10.405 14.426,12.291"
             style="fill:#cfe35d;fill-opacity:1;fill-rule:evenodd;stroke:none"
             id="path930" />
        </g>
      </g>
    </g>
  </g>
</svg>
